<svg width="26" height="25" viewBox="0 0 26 25" fill="none" xmlns="http://www.w3.org/2000/svg">
<g id="lucide--settings">
<g id="Group">
<path id="Vector" d="M13.2497 2.58618H12.8038C12.2663 2.58618 11.7507 2.79972 11.3706 3.17983C10.9905 3.55993 10.777 4.07547 10.777 4.61302V4.79543C10.7766 5.15086 10.6828 5.49995 10.5049 5.80767C10.327 6.11539 10.0714 6.37093 9.76356 6.54865L9.32779 6.802C9.01967 6.97989 8.67015 7.07355 8.31437 7.07355C7.95858 7.07355 7.60907 6.97989 7.30095 6.802L7.14894 6.72093C6.68384 6.45264 6.1313 6.37985 5.6126 6.51856C5.09389 6.65726 4.65142 6.99611 4.38231 7.46072L4.15935 7.84582C3.89106 8.31091 3.81828 8.86346 3.95698 9.38216C4.09568 9.90086 4.43453 10.3433 4.89915 10.6125L5.05116 10.7138C5.35749 10.8906 5.61221 11.1446 5.79 11.4504C5.96778 11.7562 6.06245 12.1032 6.06458 12.4569V12.9737C6.066 13.3309 5.97302 13.682 5.79506 13.9917C5.61709 14.3014 5.36047 14.5585 5.05116 14.7371L4.89915 14.8283C4.43453 15.0974 4.09568 15.5399 3.95698 16.0586C3.81828 16.5773 3.89106 17.1298 4.15935 17.5949L4.38231 17.98C4.65142 18.4446 5.09389 18.7835 5.6126 18.9222C6.1313 19.0609 6.68384 18.9881 7.14894 18.7198L7.30095 18.6387C7.60907 18.4608 7.95858 18.3672 8.31437 18.3672C8.67015 18.3672 9.01967 18.4608 9.32779 18.6387L9.76356 18.8921C10.0714 19.0698 10.327 19.3253 10.5049 19.6331C10.6828 19.9408 10.7766 20.2899 10.777 20.6453V20.8277C10.777 21.3653 10.9905 21.8808 11.3706 22.2609C11.7507 22.641 12.2663 22.8545 12.8038 22.8545H13.2497C13.7873 22.8545 14.3028 22.641 14.6829 22.2609C15.063 21.8808 15.2766 21.3653 15.2766 20.8277V20.6453C15.2769 20.2899 15.3707 19.9408 15.5486 19.6331C15.7265 19.3253 15.9822 19.0698 16.29 18.8921L16.7257 18.6387C17.0339 18.4608 17.3834 18.3672 17.7392 18.3672C18.0949 18.3672 18.4445 18.4608 18.7526 18.6387L18.9046 18.7198C19.3697 18.9881 19.9222 19.0609 20.4409 18.9222C20.9596 18.7835 21.4021 18.4446 21.6712 17.98L21.8942 17.5848C22.1625 17.1197 22.2352 16.5671 22.0965 16.0484C21.9578 15.5297 21.619 15.0873 21.1544 14.8181L21.0024 14.7371C20.6931 14.5585 20.4364 14.3014 20.2585 13.9917C20.0805 13.682 19.9875 13.3309 19.9889 12.9737V12.467C19.9875 12.1099 20.0805 11.7587 20.2585 11.449C20.4364 11.1394 20.6931 10.8822 21.0024 10.7037L21.1544 10.6125C21.619 10.3433 21.9578 9.90086 22.0965 9.38216C22.2352 8.86346 22.1625 8.31091 21.8942 7.84582L21.6712 7.46072C21.4021 6.99611 20.9596 6.65726 20.4409 6.51856C19.9222 6.37985 19.3697 6.45264 18.9046 6.72093L18.7526 6.802C18.4445 6.97989 18.0949 7.07355 17.7392 7.07355C17.3834 7.07355 17.0339 6.97989 16.7257 6.802L16.29 6.54865C15.9822 6.37093 15.7265 6.11539 15.5486 5.80767C15.3707 5.49995 15.2769 5.15086 15.2766 4.79543V4.61302C15.2766 4.07547 15.063 3.55993 14.6829 3.17983C14.3028 2.79972 13.7873 2.58618 13.2497 2.58618Z" stroke="white" stroke-width="2.08475" stroke-linecap="round" stroke-linejoin="round"/>
<path id="Vector_2" d="M13.0268 15.7607C14.7059 15.7607 16.0671 14.3995 16.0671 12.7204C16.0671 11.0413 14.7059 9.68018 13.0268 9.68018C11.3477 9.68018 9.98657 11.0413 9.98657 12.7204C9.98657 14.3995 11.3477 15.7607 13.0268 15.7607Z" stroke="white" stroke-width="2.08475" stroke-linecap="round" stroke-linejoin="round"/>
</g>
</g>
</svg>
