<svg width="29" height="26" viewBox="0 0 29 26" fill="none" xmlns="http://www.w3.org/2000/svg">
<g id="lucide--home">
<g id="Group">
<path id="Vector" d="M17.8892 22.1885V14.0812C17.8892 13.8124 17.7702 13.5546 17.5584 13.3646C17.3467 13.1745 17.0594 13.0677 16.76 13.0677H12.243C11.9435 13.0677 11.6563 13.1745 11.4445 13.3646C11.2327 13.5546 11.1138 13.8124 11.1138 14.0812V22.1885" stroke="white" stroke-width="2.08475" stroke-linecap="round" stroke-linejoin="round"/>
<path id="Vector_2" d="M4.33838 11.0409C4.3383 10.7461 4.4099 10.4548 4.54818 10.1873C4.68646 9.91987 4.88809 9.68271 5.13901 9.4924L13.0437 3.4129C13.4513 3.10372 13.9678 2.93408 14.5015 2.93408C15.0352 2.93408 15.5517 3.10372 15.9594 3.4129L23.864 9.4924C24.1149 9.68271 24.3166 9.91987 24.4549 10.1873C24.5931 10.4548 24.6647 10.7461 24.6647 11.0409V20.1617C24.6647 20.6992 24.4267 21.2147 24.0032 21.5949C23.5796 21.975 23.0052 22.1885 22.4062 22.1885H6.59685C5.99787 22.1885 5.42342 21.975 4.99987 21.5949C4.57632 21.2147 4.33838 20.6992 4.33838 20.1617V11.0409Z" stroke="white" stroke-width="2.08475" stroke-linecap="round" stroke-linejoin="round"/>
</g>
</g>
</svg>
