<svg width="19" height="19" viewBox="0 0 19 19" fill="none" xmlns="http://www.w3.org/2000/svg">
<g id="shopping-cart" clip-path="url(#clip0_157_663)">
<path id="Vector" d="M7.12492 17.4167C7.56214 17.4167 7.91659 17.0623 7.91659 16.625C7.91659 16.1878 7.56214 15.8334 7.12492 15.8334C6.68769 15.8334 6.33325 16.1878 6.33325 16.625C6.33325 17.0623 6.68769 17.4167 7.12492 17.4167Z" stroke="white" stroke-width="2" stroke-linecap="round" stroke-linejoin="round"/>
<path id="Vector_2" d="M15.8334 17.4167C16.2706 17.4167 16.6251 17.0623 16.6251 16.625C16.6251 16.1878 16.2706 15.8334 15.8334 15.8334C15.3962 15.8334 15.0417 16.1878 15.0417 16.625C15.0417 17.0623 15.3962 17.4167 15.8334 17.4167Z" stroke="white" stroke-width="2" stroke-linecap="round" stroke-linejoin="round"/>
<path id="Vector_3" d="M0.791748 0.791626H3.95842L6.08008 11.392C6.15248 11.7565 6.35076 12.0839 6.64022 12.3169C6.92969 12.55 7.29188 12.6737 7.66342 12.6666H15.3584C15.7299 12.6737 16.0921 12.55 16.3816 12.3169C16.6711 12.0839 16.8694 11.7565 16.9418 11.392L18.2084 4.74996H4.75008" stroke="white" stroke-width="2" stroke-linecap="round" stroke-linejoin="round"/>
</g>
<defs>
<clipPath id="clip0_157_663">
<rect width="19" height="19" fill="white"/>
</clipPath>
</defs>
</svg>
