<svg width="433" height="302" viewBox="0 0 433 302" fill="none" xmlns="http://www.w3.org/2000/svg">
<g clip-path="url(#clip0_380_15552)">
<path d="M202.62 133.238C202.62 191.51 167.965 211.862 125.198 211.862C82.431 211.862 47.8237 191.558 47.8237 133.238C47.8237 74.9173 125.198 0.804688 125.198 0.804688C125.198 0.804688 202.62 74.9653 202.62 133.238Z" fill="#EDF2F7"/>
<path d="M122.415 202.982L123.182 154.214L156.158 93.8295L123.326 146.534L123.662 124.598L146.414 80.9653L123.758 118.79L124.382 79.3333L148.766 44.581L124.526 73.1413L124.91 0.804688L122.367 96.5655L122.607 92.6294L97.839 54.7571L122.175 100.214L119.871 144.278L119.823 143.126L91.2632 103.238L119.727 147.254L119.439 152.726L119.391 152.822L119.439 153.302L113.583 265.095H121.407L122.319 207.35L150.686 163.43L122.415 202.982Z" fill="#1D2130"/>
<path d="M432.919 157.142C432.919 204.854 404.552 221.51 369.56 221.51C334.569 221.51 306.202 204.854 306.202 157.142C306.202 109.429 369.56 48.709 369.56 48.709C369.56 48.709 432.919 109.429 432.919 157.142Z" fill="#EDF2F7"/>
<path d="M367.257 214.214L367.881 174.278L394.904 124.886L368.025 167.99L368.313 150.038L386.889 114.326L368.361 145.286L368.889 113.03L388.809 84.5653L368.985 107.941L369.321 48.709L367.257 127.094L367.401 123.878L347.145 92.8694L367.113 130.07L365.193 166.166L365.145 165.206L341.77 132.566L365.097 168.566L364.857 173.078L364.809 173.174V173.51L360.009 265.047H366.441L367.209 217.766L390.44 181.814L367.257 214.214Z" fill="#1D2130"/>
<path d="M214.428 274.264C332.659 274.264 428.504 269.429 428.504 263.464C428.504 257.499 332.659 252.664 214.428 252.664C96.1978 252.664 0.353027 257.499 0.353027 263.464C0.353027 269.429 96.1978 274.264 214.428 274.264Z" fill="#1D2130"/>
<path d="M344.841 283.238C365.094 283.238 381.512 282.4 381.512 281.366C381.512 280.332 365.094 279.494 344.841 279.494C324.588 279.494 308.17 280.332 308.17 281.366C308.17 282.4 324.588 283.238 344.841 283.238Z" fill="#1D2130"/>
<path d="M212.172 301.094C232.425 301.094 248.843 300.256 248.843 299.222C248.843 298.188 232.425 297.35 212.172 297.35C191.919 297.35 175.501 298.188 175.501 299.222C175.501 300.256 191.919 301.094 212.172 301.094Z" fill="#1D2130"/>
<path d="M111.518 288.47C157.777 288.47 195.277 286.578 195.277 284.246C195.277 281.913 157.777 280.021 111.518 280.021C65.2601 280.021 27.7603 281.913 27.7603 284.246C27.7603 286.578 65.2601 288.47 111.518 288.47Z" fill="#1D2130"/>
<path d="M37.8397 249.877C54.673 249.877 68.319 236.23 68.319 219.396C68.319 202.562 54.673 188.916 37.8397 188.916C21.0064 188.916 7.36035 202.562 7.36035 219.396C7.36035 236.23 21.0064 249.877 37.8397 249.877Z" fill="#1D2130"/>
<path d="M23.6581 243.155L23.4624 259.762L32.7255 259.871L32.9212 243.264L23.6581 243.155Z" fill="#1D2130"/>
<path d="M42.1591 243.376L41.9634 259.982L51.2266 260.092L51.4222 243.485L42.1591 243.376Z" fill="#2F2E41"/>
<path d="M38.8982 260.146C38.9169 258.556 35.4725 257.226 31.2048 257.175C26.9371 257.125 23.4623 258.374 23.4436 259.964C23.4249 261.554 26.8693 262.885 31.1369 262.935C35.4046 262.985 38.8794 261.737 38.8982 260.146Z" fill="#1D2130"/>
<path d="M57.4055 259.982C57.4243 258.392 53.9798 257.062 49.7122 257.011C45.4445 256.961 41.9697 258.21 41.9509 259.8C41.9322 261.39 45.3766 262.72 49.6443 262.771C53.912 262.821 57.3868 261.572 57.4055 259.982Z" fill="#2F2E41"/>
<path d="M38.7047 222.084C44.4573 222.084 49.1207 217.421 49.1207 211.668C49.1207 205.915 44.4573 201.252 38.7047 201.252C32.952 201.252 28.2886 205.915 28.2886 211.668C28.2886 217.421 32.952 222.084 38.7047 222.084Z" fill="white"/>
<path d="M38.7036 215.129C40.6123 215.129 42.1596 213.582 42.1596 211.673C42.1596 209.764 40.6123 208.217 38.7036 208.217C36.7949 208.217 35.2476 209.764 35.2476 211.673C35.2476 213.582 36.7949 215.129 38.7036 215.129Z" fill="#1D2130"/>
<path d="M84.3507 236.389C84.3507 257.653 71.727 265.093 56.1273 265.093C55.7434 265.093 55.4074 265.093 55.0234 265.093C54.3034 265.093 53.5834 265.045 52.8634 264.997C38.7997 263.989 27.856 256.213 27.856 236.437C27.856 215.989 54.0154 190.164 55.9833 188.244C56.0793 188.148 56.0793 188.148 56.0793 188.148C56.0793 188.148 84.3507 215.173 84.3507 236.389Z" fill="#0177AB"/>
<path d="M55.0722 261.83L65.3923 247.382L55.0722 263.414L55.0242 265.094C54.3042 265.094 53.5842 265.046 52.8642 264.998L53.9682 243.734V243.59V243.542L54.0642 241.526L43.7441 225.446L54.1602 239.99L54.2082 240.422L55.0722 224.342L46.1922 207.734L55.1682 221.51L56.0322 188.198V188.102V188.198L55.8882 214.454L64.7203 204.038L55.8402 216.71L55.6002 231.11L63.8563 217.286L55.5522 233.27L55.4082 241.286L67.4083 222.086L55.3602 244.118L55.0722 261.83Z" fill="#1D2130"/>
<path d="M275.387 249.544C292.22 249.544 305.866 235.898 305.866 219.064C305.866 202.23 292.22 188.584 275.387 188.584C258.553 188.584 244.907 202.23 244.907 219.064C244.907 235.898 258.553 249.544 275.387 249.544Z" fill="#1D2130"/>
<path d="M277.994 243.313L269.139 246.035L274.018 261.911L282.874 259.189L277.994 243.313Z" fill="#2F2E41"/>
<path d="M295.698 237.841L286.842 240.562L291.722 256.438L300.577 253.716L295.698 237.841Z" fill="#2F2E41"/>
<path d="M282.297 262.568C286.377 261.314 289.306 259.064 288.838 257.544C288.371 256.023 284.685 255.807 280.605 257.061C276.525 258.315 273.597 260.565 274.064 262.085C274.531 263.606 278.217 263.822 282.297 262.568Z" fill="#2F2E41"/>
<path d="M299.913 256.751C303.993 255.497 306.922 253.248 306.455 251.728C305.987 250.207 302.301 249.991 298.221 251.245C294.141 252.499 291.213 254.748 291.68 256.269C292.147 257.789 295.834 258.005 299.913 256.751Z" fill="#2F2E41"/>
<path d="M273.852 221.897C279.604 221.897 284.268 217.233 284.268 211.481C284.268 205.728 279.604 201.064 273.852 201.064C268.099 201.064 263.436 205.728 263.436 211.481C263.436 217.233 268.099 221.897 273.852 221.897Z" fill="white"/>
<path d="M273.851 214.934C275.76 214.934 277.307 213.386 277.307 211.478C277.307 209.569 275.76 208.021 273.851 208.021C271.942 208.021 270.395 209.569 270.395 211.478C270.395 213.386 271.942 214.934 273.851 214.934Z" fill="#1D2130"/>
<path d="M221.004 232.5C221.004 252.036 209.389 258.852 195.085 258.852C194.749 258.852 194.413 258.852 194.077 258.852C193.405 258.852 192.781 258.804 192.109 258.756C179.197 257.844 169.166 250.692 169.166 232.548C169.166 213.78 193.165 190.067 194.989 188.291C195.037 188.243 195.085 188.195 195.085 188.195C195.085 188.195 221.004 213.012 221.004 232.5Z" fill="#0177AB"/>
<path d="M194.125 255.876L203.581 242.628L194.077 257.316L194.029 258.852C193.357 258.852 192.733 258.804 192.061 258.756L193.069 239.22V239.076V239.028L193.165 237.204L183.709 222.468L193.261 235.812V236.196L194.029 221.46L185.869 206.243L194.125 218.868L194.941 188.291V188.195V188.291L194.797 212.388L202.909 202.835L194.749 214.452L194.557 227.652L202.141 214.98L194.509 229.62L194.413 236.964L205.405 219.3L194.365 239.508L194.125 255.876Z" fill="#1D2130"/>
<path d="M322.905 240.664C322.905 261.928 310.282 269.368 294.682 269.368C294.298 269.368 293.962 269.368 293.578 269.368C292.858 269.368 292.138 269.32 291.418 269.272C277.354 268.264 266.411 260.488 266.411 240.712C266.411 220.264 292.57 194.44 294.538 192.52C294.634 192.424 294.634 192.424 294.634 192.424C294.634 192.424 322.905 219.4 322.905 240.664Z" fill="#0177AB"/>
<path d="M293.627 266.102L303.947 251.654L293.627 267.686L293.579 269.366C292.859 269.366 292.139 269.318 291.419 269.27L292.523 248.006V247.862V247.813L292.619 245.797L282.25 229.765L292.667 244.309L292.715 244.741L293.579 228.661L284.699 212.005L293.675 225.781L294.539 192.469V192.373V192.469L294.395 218.725L303.227 208.309L294.347 220.981L294.107 235.381L302.363 221.557L294.107 237.493L293.963 245.509L305.963 226.309L293.915 248.342L293.627 266.102Z" fill="#1D2130"/>
<path d="M277.3 237.335C278.436 234.939 273.182 230.069 265.566 226.457C257.949 222.845 250.854 221.858 249.718 224.253C248.582 226.648 253.836 231.518 261.452 235.131C269.069 238.743 276.164 239.73 277.3 237.335Z" fill="#1D2130"/>
<path d="M42.6257 234.511C43.6118 232.05 38.068 227.513 30.2432 224.377C22.4183 221.241 15.2756 220.693 14.2895 223.154C13.3033 225.615 18.8472 230.152 26.672 233.288C34.4968 236.424 41.6395 236.971 42.6257 234.511Z" fill="#1D2130"/>
</g>
<defs>
<clipPath id="clip0_380_15552">
<rect width="432.567" height="300.29" fill="white" transform="translate(0.353027 0.806641)"/>
</clipPath>
</defs>
</svg>
