<svg id="Layer_1" data-name="Layer 1" xmlns="http://www.w3.org/2000/svg" xmlns:xlink="http://www.w3.org/1999/xlink" viewBox="0 0 298.92 168.24"><defs><style>.cls-1{fill:#457B83;}.cls-2{fill:url(#linear-gradient);}</style><linearGradient id="linear-gradient" x1="94.72" y1="110.04" x2="477.01" y2="110.04" gradientUnits="userSpaceOnUse"><stop offset="0" stop-color="#457B83"/><stop offset="1" stop-color="#457B83"/></linearGradient></defs><path class="cls-1" d="M126.76,49.42a25.24,25.24,0,0,0,.75,14.91l4.92,10A38.43,38.43,0,0,1,147.3,60.76c16.11-8.14,32.25-1.32,34.73-.22L181.8,114,204.15,126l.37-67.24,32.06.37,8.76,3a30.93,30.93,0,0,1,5.39,6.11,32.54,32.54,0,0,1,3.85,8,33.39,33.39,0,0,1,1.37,5.9l.69,5.09,5.5.14-1.65-39.16L127.21,48C127,48.45,126.89,48.93,126.76,49.42Z" transform="translate(-94.72 -36.58)"/><path class="cls-1" d="M316,46.45l.27,3.57.37,1.29c2.86-.81,8.93-2,14.76.87a20,20,0,0,1,5.77,4.67h0s.82,21.32,2.46,64.35l-75.29.82V99.76H241.25l1,37.65,21.26,8.38.41-15.39,75.16.14.28,24.87s22-.41,22.81-3.71c-.28-43.22-.22-74.92-.36-85.14,0-2.37-.13-8.06,3.57-11.64a13.76,13.76,0,0,1,8.06-3.61h7.87l4.77.36V46Z" transform="translate(-94.72 -36.58)"/><path class="cls-1" d="M338.72,183.07a18.64,18.64,0,0,1-9.53,15.75l-12.92.19-.18,5.77,70-.09-.19-5-10.07-.28q-6.46-9.24-12.92-18.5Z" transform="translate(-94.72 -36.58)"/><path class="cls-2" d="M130.78,36.58a56.05,56.05,0,0,0-12.63,1.94,42.7,42.7,0,0,0-7.63,3.09l-.69.37a36.42,36.42,0,0,0-7.14,4.65,22.82,22.82,0,0,0-3.64,4.1,26.92,26.92,0,0,0-3.89,9.09c-1.54,7.72,1.37,14.1,3,17.7a37.53,37.53,0,0,0,4.68,7.66l5.8,8.18a5.86,5.86,0,0,0,.61.71l9.12,8.72c.1.1.22.2.34.3l21.35,17A154.93,154.93,0,0,0,156.92,131c4.18,2.32,10.77,5.63,23.94,12.25l.43.22a253.23,253.23,0,0,0,24.06,10.41c5.79,2.22,10.09,3.77,14.66,5.4,10.44,3.74,15.67,5.61,21.1,7.24,11.1,3.32,19.64,5.59,23.74,6.59,15.91,3.9,37.88,9.27,66.27,10.26a265,265,0,0,0,30.5-.7c6.55-.52,9.08-1.62,11.09-2.41,3.31-1.3,16-6.85,19.83-19.79a27,27,0,0,0,.82-11.6c-2-13.56-15.67-25.28-15.67-25.28,1.52,4,2.95,8.14,4.25,12.5.25.83.49,1.66.72,2.48a18,18,0,0,1,.91,7.44,18.42,18.42,0,0,1-3.86,9.68c-.47.57-.93,1.14-1.39,1.72a33,33,0,0,1-3,2.74,34.32,34.32,0,0,1-6.62,4.22,12.37,12.37,0,0,1-1.34.68,67.76,67.76,0,0,1-9.95,3.16,68.55,68.55,0,0,1-13,1.79c-4,.27-9.65.55-16.42.5-25.72-.16-45-4.72-58.23-8-22.94-5.72-39.74-12.57-54.19-18.57-6.78-2.81-14.36-5.92-24.19-10.85A309.31,309.31,0,0,1,154,110.86a2.2,2.2,0,0,1-.25-.17L136.55,97.55l-.27-.21-9.43-8.26a5,5,0,0,1-.6-.62c-17-18-17.18-28.79-15.36-34.53l.12-.39A19.28,19.28,0,0,1,113.24,49c.12-.18.45-.65.93-1.28a27.81,27.81,0,0,1,11.09-8.36,5.7,5.7,0,0,1,.62-.24Z" transform="translate(-94.72 -36.58)"/><path class="cls-1" d="M181.34,142.58v41.77l-1.92,9.07s-6.32,6.32-8.79,5.5l-12.1.55v4.39l69.26.55-.28-4.94H216.79l-4.12-1.93-3.3-2.33-2.06-2.75-1.37-4.4-1.1-35.59Z" transform="translate(-94.72 -36.58)"/><path class="cls-1" d="M241.11,166.49l0,17.45c0,1.19.09,2.38.13,3.57l-1.74.14v16.9l47.68.27-.42-5.35-10.3-.14-6.74-3.44a6.92,6.92,0,0,1-4.67-7.83l-1-15.25Z" transform="translate(-94.72 -36.58)"/></svg>