<svg width="555" height="566" viewBox="0 0 555 566" fill="none" xmlns="http://www.w3.org/2000/svg">
<path d="M173.106 8.58833C174.962 7.47672 176.957 6.61836 179.04 6.03608L180.253 0.178657L190.155 0L191.585 5.81913C193.684 6.33674 195.705 7.13061 197.595 8.17996L202.598 4.90032L209.731 11.7914L206.63 16.8959C207.742 18.7464 208.601 20.7379 209.182 22.8171L215.04 24.0294L215.219 33.9322L209.399 35.3487C208.884 37.4485 208.09 39.4699 207.039 41.3592L210.318 46.3744L203.427 53.4952L198.323 50.3942C196.472 51.5064 194.481 52.3648 192.401 52.9464L191.125 58.8039L181.223 58.9825L179.793 53.1634C177.698 52.6457 175.681 51.8518 173.795 50.8026L168.78 54.0822L161.621 47.2039L164.722 42.0994C163.611 40.2441 162.752 38.2484 162.17 36.1654L156.313 34.8893L156.134 24.9865L161.953 23.5573C162.471 21.4582 163.265 19.437 164.314 17.5467L161.034 12.5316L168.002 5.48734L173.106 8.58833ZM178.39 21.7835C176.929 23.2952 175.949 25.2062 175.574 27.2749C175.199 29.3435 175.446 31.4769 176.283 33.4052C177.121 35.3335 178.511 36.9702 180.279 38.1083C182.047 39.2464 184.112 39.8349 186.214 39.7992C188.316 39.7635 190.36 39.1053 192.088 37.9078C193.816 36.7104 195.15 35.0274 195.922 33.0718C196.693 31.1161 196.868 28.9756 196.423 26.9209C195.978 24.8662 194.934 22.9895 193.422 21.5282C192.417 20.5516 191.228 19.7833 189.925 19.2673C188.621 18.7514 187.229 18.498 185.827 18.5217C184.426 18.5454 183.043 18.8458 181.758 19.4055C180.472 19.9653 179.31 20.7734 178.339 21.7835H178.39Z" fill="#E0E0E0"/>
<path d="M175.403 337.242C176.472 336.597 177.622 336.099 178.823 335.761L179.525 332.38L185.242 332.277L186.059 335.634C187.272 335.927 188.439 336.382 189.53 336.986L192.414 335.098L196.523 339.066L194.801 341.989C195.445 343.057 195.943 344.208 196.281 345.409L199.663 346.111L199.765 351.828L196.408 352.644C196.115 353.857 195.66 355.024 195.056 356.115L196.944 358.999L192.976 363.109L190.028 361.322C188.957 361.965 187.807 362.467 186.608 362.815L185.868 366.235L180.151 366.337L179.334 362.981C178.121 362.688 176.954 362.233 175.863 361.628L172.979 363.517L168.87 359.548L170.656 356.6C170.013 355.529 169.511 354.38 169.163 353.18L165.794 352.479L165.692 346.761L169.048 345.945C169.341 344.732 169.796 343.565 170.401 342.474L168.512 339.59L172.481 335.481L175.429 337.267L175.403 337.242ZM178.453 344.898C177.608 345.771 177.041 346.875 176.824 348.07C176.606 349.265 176.748 350.498 177.232 351.613C177.716 352.727 178.519 353.673 179.541 354.33C180.563 354.988 181.756 355.327 182.971 355.306C184.186 355.284 185.367 354.903 186.365 354.21C187.362 353.517 188.132 352.543 188.576 351.412C189.02 350.281 189.119 349.044 188.859 347.857C188.6 346.671 187.994 345.587 187.118 344.745C186.543 344.183 185.862 343.739 185.115 343.44C184.368 343.141 183.569 342.991 182.765 343.001C181.96 343.01 181.165 343.178 180.425 343.495C179.686 343.812 179.015 344.271 178.453 344.847V344.898Z" fill="#E0E0E0"/>
<path d="M50.9557 40.0958C51.6858 39.6543 52.471 39.311 53.291 39.0749L53.7759 36.7651H57.6681L58.2551 38.9856C59.0821 39.1957 59.8795 39.5087 60.6287 39.9172L62.5939 38.641L65.4014 41.3464L64.1253 43.3627C64.5668 44.0928 64.9101 44.8781 65.1462 45.698L67.456 46.1829V50.0113L65.159 50.5728C64.9591 51.4012 64.6502 52.1994 64.2401 52.9464L65.5163 54.9116L62.8109 57.7191L60.7946 56.443C60.0645 56.8845 59.2793 57.2278 58.4593 57.4639L57.9744 59.7737H54.146L53.5845 57.4767C52.7561 57.2768 51.9579 56.9679 51.2109 56.5578L49.2457 57.834L46.4382 55.1158L47.7143 53.1123C47.2728 52.3822 46.9295 51.597 46.6934 50.777L44.3836 50.2921L44.3198 46.4637L46.6041 45.9022C46.8142 45.0752 47.1272 44.2778 47.5357 43.5286L46.2595 41.5634L48.9649 38.7559L50.9812 40.032L50.9557 40.0958ZM53.0358 45.2897C52.4609 45.8852 52.0756 46.6378 51.9284 47.4523C51.7812 48.2668 51.8788 49.1066 52.2088 49.8657C52.5389 50.6247 53.0866 51.2688 53.7827 51.7167C54.4787 52.1645 55.292 52.3959 56.1195 52.3816C56.9471 52.3674 57.7519 52.1081 58.4321 51.6365C59.1123 51.165 59.6374 50.5023 59.9411 49.7323C60.2448 48.9624 60.3134 48.1197 60.1382 47.3107C59.9631 46.5018 59.552 45.7629 58.957 45.1876C58.5616 44.8052 58.0948 44.5046 57.5831 44.3028C57.0715 44.101 56.5251 44.002 55.9752 44.0115C55.4253 44.021 54.8827 44.1388 54.3783 44.3581C53.8739 44.5774 53.4177 44.8939 53.0358 45.2897Z" fill="#E0E0E0"/>
<path d="M241.456 31.8903C242.895 31.0203 244.445 30.3465 246.062 29.8868L247.007 25.331L254.664 25.1907L255.774 29.7209C257.41 30.121 258.985 30.7391 260.457 31.5585L264.286 29.0063L269.939 34.4426L267.54 38.3731C268.413 39.8156 269.087 41.3695 269.543 42.9926L274.112 43.937L274.239 51.5937L269.722 52.7039C269.311 54.3487 268.684 55.932 267.859 57.4128L270.411 61.3178L265.064 66.8562L261.082 64.4443C259.642 65.3116 258.093 65.9852 256.476 66.4478L255.519 71.0036L247.862 71.144L246.752 66.6137C245.098 66.2231 243.505 65.6092 242.017 64.7888L238.189 67.3411L232.638 61.9941L235.05 58.0126C234.181 56.5677 233.508 55.0144 233.046 53.393L228.49 52.4487L228.35 44.792L232.88 43.6817C233.28 42.0494 233.898 40.4784 234.718 39.0111L232.165 35.1062L237.512 29.5678L241.456 31.8903ZM245.565 42.0993C244.43 43.2769 243.669 44.7647 243.379 46.3746C243.09 47.9844 243.284 49.644 243.938 51.1434C244.591 52.6428 245.675 53.9147 247.052 54.7982C248.428 55.6816 250.036 56.137 251.671 56.1066C253.307 56.0763 254.897 55.5616 256.239 54.6277C257.582 53.6937 258.618 52.3825 259.216 50.8599C259.813 49.3373 259.946 47.6716 259.597 46.0736C259.248 44.4756 258.432 43.017 257.254 41.8824C256.466 41.1343 255.539 40.5491 254.525 40.1602C253.51 39.7712 252.429 39.5863 251.343 39.6159C250.257 39.6456 249.188 39.8892 248.196 40.3329C247.205 40.7765 246.311 41.4115 245.565 42.2014V42.0993Z" fill="#EBEBEB"/>
<path d="M445.189 222.161C447.035 221.049 449.023 220.19 451.098 219.608L452.374 213.751L462.264 213.572L463.693 219.391C465.794 219.903 467.816 220.697 469.704 221.752L474.693 218.473L481.814 225.351L478.726 230.455C479.831 232.31 480.689 234.3 481.278 236.377L487.135 237.653L487.314 247.543L481.495 248.972C480.983 251.069 480.189 253.087 479.134 254.97L482.414 259.972L475.548 267.016L470.444 263.915C468.592 265.026 466.601 265.884 464.522 266.468L463.246 272.325L453.356 272.491L451.927 266.697C449.832 266.18 447.815 265.386 445.929 264.337L440.927 267.616L433.806 260.738L436.907 255.633C435.795 253.787 434.937 251.8 434.355 249.725L428.497 248.449L428.332 238.623L434.138 237.193C434.656 235.094 435.449 233.073 436.499 231.183L433.219 226.193L440.097 219.072L445.202 222.173L445.189 222.161ZM450.46 235.343C449.002 236.854 448.026 238.764 447.654 240.83C447.282 242.897 447.531 245.027 448.369 246.952C449.208 248.876 450.598 250.509 452.364 251.644C454.131 252.779 456.194 253.365 458.293 253.327C460.392 253.29 462.433 252.631 464.158 251.434C465.882 250.237 467.213 248.555 467.983 246.602C468.752 244.648 468.925 242.51 468.479 240.459C468.033 238.407 466.99 236.534 465.48 235.075C464.477 234.104 463.292 233.341 461.994 232.829C460.696 232.317 459.309 232.066 457.914 232.091C456.519 232.116 455.142 232.416 453.863 232.974C452.583 233.532 451.427 234.337 450.46 235.343Z" fill="#E0E0E0"/>
<path d="M515.108 29.6189C515.116 25.497 514.172 21.4289 512.351 17.731C510.53 14.0332 507.881 10.8052 504.609 8.29811C501.337 5.79106 497.531 4.07252 493.487 3.27616C489.443 2.47979 485.269 2.62707 481.291 3.70654C477.313 4.786 473.638 6.76856 470.551 9.50001C467.464 12.2315 465.049 15.6382 463.493 19.4552C461.937 23.2723 461.283 27.3967 461.581 31.5078C461.879 35.6189 463.121 39.6059 465.212 43.1586L465.288 43.2607C466.309 44.9962 467.598 46.2341 468.9 48.0462L484.481 68.6683C484.933 69.2537 485.513 69.7276 486.177 70.0536C486.84 70.3797 487.57 70.5493 488.309 70.5493C489.049 70.5493 489.779 70.3797 490.442 70.0536C491.106 69.7276 491.686 69.2537 492.138 68.6683L507.451 48.3907C508.843 46.7629 510.142 45.0587 511.344 43.2862L511.407 43.2096C513.838 39.0934 515.116 34.3991 515.108 29.6189ZM488.309 41.2827C485.978 41.2802 483.699 40.5865 481.762 39.2893C479.825 37.9921 478.315 36.1496 477.425 33.9948C476.534 31.84 476.303 29.4696 476.759 27.1831C477.215 24.8966 478.339 22.7968 479.989 21.149C481.638 19.5012 483.74 18.3795 486.027 17.9255C488.313 17.4716 490.684 17.7058 492.838 18.5987C494.991 19.4915 496.832 21.0029 498.127 22.9417C499.422 24.8805 500.114 27.1597 500.114 29.4913C500.114 31.0408 499.808 32.5752 499.215 34.0066C498.621 35.438 497.752 36.7385 496.655 37.8336C495.559 38.9287 494.258 39.797 492.826 40.3888C491.394 40.9806 489.859 41.2844 488.309 41.2827Z" fill="#E0E0E0"/>
<path d="M43.2862 415.302C46.0019 413.414 48.1036 410.77 49.3309 407.699C50.5581 404.627 50.8568 401.263 50.19 398.023C48.4417 388.848 39.981 382.71 31.4437 384.356C22.9064 386.002 17.2787 394.757 19.027 403.945C19.598 407.231 21.131 410.274 23.4322 412.689C25.7333 415.104 28.6991 416.781 31.9542 417.51C8.70317 425.779 14.8669 451.608 14.8669 451.608L71.5651 440.837C71.5651 440.837 67.7367 414.268 43.2862 415.302Z" fill="#EBEBEB"/>
<path d="M111.98 525.406L100.367 522.522C100.367 522.522 97.9554 532.323 87.7209 529.988C85.7421 529.574 83.9413 528.554 82.569 527.07C81.1967 525.586 80.3212 523.711 80.0641 521.705C79.8227 520.026 79.9825 518.313 80.5303 516.707C81.0782 515.101 81.9986 513.648 83.2161 512.466C85.9981 509.684 91.0771 507.783 98.5296 511.114L105.025 484.787L93.4762 481.941L89.6478 497.37C89.6478 497.37 72.4329 497.561 68.043 515.401C63.8318 532.476 78.1627 540.209 84.722 541.817C89.7499 543.055 107.118 546.054 111.98 525.406Z" fill="#EBEBEB"/>
<path d="M94.6653 476.491L106.375 479.375L109.07 468.434L97.3608 465.549L94.6653 476.491Z" fill="#EBEBEB"/>
<path d="M554.821 565.183C554.821 565.362 430.603 565.515 277.417 565.515C124.231 565.515 1.52588e-05 565.311 1.52588e-05 565.183C1.52588e-05 565.055 124.18 564.851 277.417 564.851C430.654 564.851 554.821 564.992 554.821 565.183Z" fill="#664526"/>
<path d="M31.4565 243.982H58.1148L55.7667 255.94H7.74611L9.64754 246.433L38.5518 223.781C45.6981 218.064 47.8803 214.721 47.8803 210.548C47.8803 206.375 44.7027 203.568 38.5518 203.568C35.9556 203.607 33.4004 204.221 31.0702 205.366C28.74 206.511 26.6927 208.159 25.0759 210.191L15.1987 203.032C20.3032 196.051 29.7848 191.432 40.7212 191.432C54.1333 191.432 62.913 198.591 62.913 208.468C62.913 215.984 59.4802 222.327 48.3269 230.94L31.4565 243.982Z" fill="#263238"/>
<path d="M121.628 242.63H111.214L108.586 255.94H94.2674L96.9855 242.63H62.8237L64.7251 232.752L102.065 192.516H118.093L83.3055 230.66H99.9717L102.333 218.792H116.013L113.652 230.66H124.078L121.628 242.63Z" fill="#263238"/>
<path d="M163.484 179.653H176.718L130.152 265H116.957L163.484 179.653Z" fill="#263238"/>
<path d="M223.922 192.516L222.02 202.036L188.139 255.94H171.83L204.346 204.473H183.788L181.695 214.81H168.653L173.106 192.516H223.922Z" fill="#263238"/>
<path d="M1.81212 305.976L5.52564 298.932C8.83535 301.047 12.675 302.184 16.6024 302.212C20.2266 302.212 22.3195 301.076 22.3195 299.264C22.3195 294.785 6.13818 297.26 6.13818 286.796C6.13818 279.612 12.2763 274.903 22.128 274.903C26.3063 274.764 30.4451 275.751 34.1109 277.761L30.6908 284.754C27.9446 283.064 24.7785 282.18 21.5538 282.202C17.6488 282.202 15.556 283.631 15.556 285.444C15.556 290.012 31.7373 287.396 31.7373 297.669C31.7373 304.802 25.4587 309.511 15.7091 309.511C9.99208 309.537 4.81101 308.018 1.81212 305.976Z" fill="#263238"/>
<path d="M48.5183 282.853L47.4336 288.468H62.2239L60.8074 295.5H46.0043L44.8048 301.6H62.2749L60.7436 308.873H34.0088L40.7212 275.63H66.7924L65.3121 282.917L48.5183 282.853Z" fill="#263238"/>
<path d="M91.0898 298.881L96.7558 308.873H86.9041L81.9528 300.03H77.2056L75.4445 308.873H66.0267L72.6754 275.63H86.9041C95.4159 275.63 100.316 279.586 100.316 286.248C100.383 289.075 99.5151 291.846 97.847 294.13C96.1788 296.414 93.8037 298.084 91.0898 298.881ZM85.577 282.994H80.6256L78.6731 292.743H84.2881C88.4355 292.743 90.8601 290.752 90.8601 287.09C90.8091 284.282 88.8056 282.994 85.577 282.994Z" fill="#263238"/>
<path d="M141.599 275.63L120.785 308.873H111.508L103.877 275.63H113.537L118.297 297.325L131.9 275.63H141.599Z" fill="#263238"/>
<path d="M143.59 275.63H153.02L146.308 308.873H136.89L143.59 275.63Z" fill="#263238"/>
<path d="M154.488 294.887C154.488 283.325 163 274.903 175.365 274.903C181.503 274.903 186.506 277.149 188.879 281.181L182.039 286.605C181.275 285.367 180.192 284.359 178.903 283.685C177.614 283.011 176.167 282.697 174.714 282.777C168.244 282.777 163.957 287.766 163.957 294.325C163.957 298.805 167.007 301.804 172.098 301.804C173.653 301.811 175.189 301.471 176.596 300.809C178.002 300.146 179.243 299.178 180.227 297.975L185.791 303.437C182.039 307.967 177.139 309.626 171.192 309.626C161.009 309.537 154.488 303.59 154.488 294.887Z" fill="#263238"/>
<path d="M202.623 282.853L201.526 288.468H216.316L214.938 295.5H200.096L198.91 301.6H216.367L214.849 308.873H188.165L194.801 275.63H220.872L219.404 282.917L202.623 282.853Z" fill="#263238"/>
<path d="M38.0286 173.744H19.4354C19.4354 147.865 29.9124 121.423 48.1738 101.133C67.3922 79.8088 92.3405 68.0685 118.361 68.0685C171.537 68.0685 208.685 106.888 208.685 162.502H190.13C190.13 117.161 161.302 86.6999 118.399 86.6999C76.3379 86.6616 38.0286 128.161 38.0286 173.744Z" fill="#FF725E"/>
<path d="M48.2248 168.576C51.1982 168.576 53.6101 168.87 53.5973 169.138C53.5845 169.406 51.1854 169.61 48.2248 169.61C45.2642 169.61 42.8396 169.367 42.8396 169.048C42.8396 168.729 45.2642 168.525 48.2248 168.576Z" fill="#263238"/>
<path d="M61.0626 127.817C63.6149 129.45 65.3376 131.122 65.0569 131.569C64.7762 132.015 62.5047 131.109 59.9524 129.565C57.4001 128.021 55.7029 126.324 55.9709 125.813C56.2389 125.303 58.5742 126.196 61.0626 127.817Z" fill="#263238"/>
<path d="M93.221 99.7292C94.4333 102.447 95.0331 104.834 94.4971 105.038C93.9611 105.242 92.5957 103.264 91.294 100.597C89.9924 97.9299 89.3926 95.4925 90.0179 95.2883C90.6432 95.0841 92.0214 96.9728 93.221 99.7292Z" fill="#263238"/>
<path d="M135.588 96.3858C134.848 99.2699 133.84 101.49 133.342 101.388C132.845 101.286 132.947 98.836 133.585 95.9137C134.223 92.9913 135.218 90.8092 135.831 90.924C136.443 91.0389 136.329 93.5145 135.588 96.3858Z" fill="#263238"/>
<path d="M170.197 120.709C167.721 122.342 165.488 123.338 165.195 122.929C164.901 122.521 166.624 120.76 169.023 119.011C171.422 117.263 173.668 116.281 174.025 116.791C174.383 117.301 172.673 119.063 170.197 120.709Z" fill="#263238"/>
<path d="M181.593 160.779C178.632 160.779 176.22 160.549 176.22 160.294C176.22 160.039 178.619 159.784 181.593 159.745C184.566 159.707 186.965 159.924 186.978 160.23C186.991 160.537 184.592 160.779 181.593 160.779Z" fill="#263238"/>
<path d="M113.32 166.317C112.394 166.324 111.493 166.013 110.768 165.437L79.5154 141.19C78.649 140.514 78.0869 139.52 77.9529 138.429C77.8189 137.338 78.1239 136.238 78.8008 135.371C79.4777 134.505 80.471 133.943 81.5623 133.809C82.6536 133.675 83.7535 133.98 84.6199 134.657L113.129 156.759L152.497 120.607C153.301 119.86 154.368 119.464 155.464 119.505C156.56 119.545 157.595 120.02 158.342 120.824C159.088 121.627 159.484 122.695 159.444 123.791C159.403 124.887 158.929 125.922 158.125 126.668L116.178 165.207C115.402 165.928 114.379 166.325 113.32 166.317Z" fill="#FF725E"/>
<path d="M134.516 40.7339H98.6828C98.126 40.7339 97.6747 41.1852 97.6747 41.742V54.7202C97.6747 55.277 98.126 55.7284 98.6828 55.7284H134.516C135.073 55.7284 135.525 55.277 135.525 54.7202V41.742C135.525 41.1852 135.073 40.7339 134.516 40.7339Z" fill="#FF725E"/>
<path d="M126.375 48.2375H106.812V65.9757H126.375V48.2375Z" fill="#FF725E"/>
<path d="M35.8469 86.6232L21.1516 104.822C20.5804 105.53 20.6908 106.566 21.3982 107.137L31.4459 115.25C32.1532 115.822 33.1897 115.711 33.7609 115.004L48.4562 96.8049C49.0273 96.0975 48.9169 95.061 48.2096 94.4899L38.1619 86.3766C37.4545 85.8054 36.4181 85.9158 35.8469 86.6232Z" fill="#FF725E"/>
<path d="M134.516 55.7284C134.516 55.9454 126.49 56.1113 116.651 56.1113C106.812 56.1113 98.7849 55.9454 98.7849 55.7284C98.7849 55.5115 106.799 55.3456 116.651 55.3456C126.502 55.3456 134.516 55.5242 134.516 55.7284Z" fill="#263238"/>
<path d="M35.5146 111.878C35.3104 112.108 32.605 110.04 29.2616 107.526C25.9181 105.012 23.2 102.971 23.3659 102.715C23.5318 102.46 26.5307 104.119 29.9124 106.659C33.2941 109.198 35.706 111.661 35.5146 111.878Z" fill="#263238"/>
<path d="M38.6284 107.297C38.4242 107.526 35.7188 105.459 32.3753 102.945C29.0319 100.431 26.301 98.3892 26.4669 98.134C26.6328 97.8788 29.6444 99.5377 33.0262 102.09C36.4079 104.642 38.8198 107.08 38.6284 107.297Z" fill="#263238"/>
<path d="M42.444 103.456C42.2525 103.685 39.5472 101.618 36.2037 99.1039C32.8603 96.5899 30.1804 94.5481 30.2952 94.2929C30.4101 94.0377 33.4728 95.6967 36.8418 98.2489C40.2107 100.801 42.6481 103.239 42.444 103.456Z" fill="#263238"/>
<path d="M46.1447 98.8742C45.9533 99.1039 43.2352 97.0366 39.8917 94.5226C36.5483 92.0087 33.8301 89.9668 34.0088 89.7116C34.1874 89.4564 37.1863 91.1154 40.5553 93.6676C43.9243 96.2199 46.3361 98.6573 46.1447 98.8742Z" fill="#263238"/>
<path d="M206.55 92.3752L190.732 75.143C190.117 74.4733 189.076 74.4287 188.406 75.0435L178.892 83.7767C178.222 84.3915 178.178 85.4328 178.793 86.1026L194.611 103.335C195.225 104.005 196.267 104.049 196.937 103.434L206.45 94.7011C207.12 94.0863 207.165 93.0449 206.55 92.3752Z" fill="#FF725E"/>
<path d="M181.618 88.3207C181.427 88.091 183.864 85.7684 186.85 82.7823C189.836 79.7962 192.248 77.4609 192.478 77.6778C192.708 77.8947 190.628 80.6129 187.603 83.5735C184.579 86.5341 181.797 88.5376 181.618 88.3207Z" fill="#263238"/>
<path d="M185.689 92.0724C185.485 91.8427 187.935 89.5201 190.908 86.534C193.882 83.5479 196.319 81.2126 196.549 81.4295C196.779 81.6464 194.686 84.3646 191.674 87.3252C188.662 90.2858 185.868 92.2893 185.689 92.0724Z" fill="#263238"/>
<path d="M188.918 96.4241C188.713 96.1944 191.164 93.8718 194.137 90.8857C197.11 87.8996 199.548 85.5643 199.777 85.7812C200.007 85.9981 197.914 88.7035 194.89 91.6641C191.866 94.6247 189.096 96.641 188.918 96.4241Z" fill="#263238"/>
<path d="M192.899 100.801C192.695 100.571 195.145 98.2489 198.119 95.2628C201.092 92.2766 203.529 89.9413 203.759 90.1583C203.989 90.3752 201.896 93.0933 198.871 96.054C195.847 99.0146 193.078 100.98 192.899 100.801Z" fill="#263238"/>
<path d="M102.703 55.7156C102.409 55.7156 102.167 52.3977 102.167 48.3268C102.167 44.256 102.409 40.9253 102.703 40.9253C102.996 40.9253 103.251 44.2432 103.251 48.3268C103.251 52.4104 103.009 55.7156 102.703 55.7156Z" fill="#263238"/>
<path d="M109.721 55.7156C109.428 55.7156 109.185 52.3977 109.185 48.3268C109.185 44.256 109.428 40.9253 109.721 40.9253C110.015 40.9253 110.257 44.2432 110.257 48.3268C110.257 52.4104 110.015 55.7156 109.721 55.7156Z" fill="#263238"/>
<path d="M116.727 55.7156C116.434 55.7156 116.191 52.3977 116.191 48.3268C116.191 44.256 116.434 40.9253 116.727 40.9253C117.021 40.9253 117.263 44.2432 117.263 48.3268C117.263 52.4104 117.034 55.7156 116.727 55.7156Z" fill="#263238"/>
<path d="M123.746 55.7156C123.44 55.7156 123.21 52.3977 123.21 48.3268C123.21 44.256 123.44 40.9253 123.746 40.9253C124.052 40.9253 124.282 44.2432 124.282 48.3268C124.282 52.4104 124.039 55.7156 123.746 55.7156Z" fill="#263238"/>
<path d="M130.752 55.7156C130.458 55.7156 130.216 52.3977 130.216 48.3268C130.216 44.256 130.458 40.9253 130.752 40.9253C131.045 40.9253 131.288 44.2432 131.288 48.3268C131.288 52.4104 130.994 55.7156 130.752 55.7156Z" fill="#263238"/>
<path d="M120.905 167.386C124.563 163.728 124.563 157.797 120.905 154.139C117.247 150.481 111.316 150.481 107.659 154.139C104.001 157.797 104.001 163.728 107.659 167.386C111.316 171.043 117.247 171.043 120.905 167.386Z" fill="#FF725E"/>
<path d="M123.644 160.779C123.555 160.779 123.567 159.949 123.172 158.533C122.604 156.556 121.397 154.824 119.739 153.607C118.41 152.62 116.833 152.022 115.184 151.879C113.535 151.737 111.878 152.055 110.399 152.799C108.921 153.543 107.678 154.683 106.809 156.092C105.94 157.501 105.48 159.124 105.48 160.779C105.48 162.434 105.94 164.057 106.809 165.466C107.678 166.875 108.921 168.015 110.399 168.759C111.878 169.503 113.535 169.821 115.184 169.679C116.833 169.536 118.41 168.938 119.739 167.951C121.394 166.731 122.601 165 123.172 163.025C123.567 161.608 123.555 160.779 123.644 160.779C123.733 160.779 123.644 160.983 123.644 161.379C123.664 161.963 123.604 162.547 123.465 163.114C123.007 165.245 121.815 167.146 120.096 168.487C118.812 169.495 117.294 170.162 115.683 170.425C114.072 170.688 112.421 170.539 110.883 169.993C108.978 169.318 107.33 168.07 106.164 166.42C104.999 164.77 104.373 162.799 104.373 160.779C104.373 158.759 104.999 156.788 106.164 155.138C107.33 153.488 108.978 152.24 110.883 151.565C112.42 151.02 114.07 150.871 115.681 151.132C117.291 151.393 118.809 152.056 120.096 153.058C121.814 154.405 123.006 156.31 123.465 158.444C123.604 159.011 123.664 159.595 123.644 160.179C123.708 160.549 123.682 160.779 123.644 160.779Z" fill="#263238"/>
<path d="M443.99 192.861L459.992 190.309C470.481 198.771 483.756 203.004 497.207 202.176C510.659 201.347 523.314 195.517 532.685 185.831C542.055 176.145 547.464 163.304 547.847 149.832C548.23 136.361 543.56 123.233 534.755 113.03C525.95 102.827 513.646 96.2872 500.264 94.6956C486.881 93.1039 473.387 96.5758 462.434 104.429C451.482 112.282 443.863 123.948 441.076 137.133C438.288 150.319 440.534 164.07 447.371 175.684L443.99 192.861Z" fill="white"/>
<path d="M443.99 192.861C443.99 192.861 443.99 192.504 444.168 191.776L444.781 188.509C445.33 185.574 446.146 181.274 447.205 175.659C447.208 175.64 447.215 175.623 447.225 175.607C447.235 175.592 447.249 175.579 447.265 175.569C447.28 175.56 447.298 175.553 447.317 175.551C447.335 175.549 447.354 175.551 447.371 175.557C447.383 175.55 447.396 175.546 447.41 175.546C447.423 175.546 447.436 175.55 447.448 175.557L447.218 175.735C442.652 168.027 440.069 159.305 439.702 150.353C439.589 147.567 439.695 144.777 440.021 142.007C440.4 139.043 441.006 136.112 441.833 133.24C444.847 122.829 450.918 113.563 459.259 106.641C467.6 99.72 477.827 95.4626 488.616 94.4206C497.081 93.6218 505.614 94.8314 513.524 97.9513C521.433 101.071 528.495 106.013 534.135 112.376L536.304 114.928C536.981 115.821 537.581 116.753 538.244 117.646C539.504 119.462 540.651 121.354 541.677 123.312C542.238 124.256 542.596 125.303 543.068 126.285C543.54 127.268 544.025 128.251 544.344 129.297C545.1 131.323 545.727 133.394 546.22 135.499C548.183 143.679 548.249 152.2 546.411 160.409C543.95 171.084 538.309 180.761 530.231 188.161C522.154 195.562 512.022 200.338 501.173 201.858C498.192 202.262 495.184 202.437 492.176 202.381C489.383 202.248 486.601 201.95 483.843 201.488C475.063 199.853 466.833 196.044 459.903 190.411H460.018L448.048 192.21L444.998 192.657L443.99 192.797L445.049 192.606L448.124 192.095L459.967 190.13H460.082C467.004 195.671 475.196 199.403 483.92 200.99C486.656 201.446 489.417 201.731 492.189 201.845C495.176 201.893 498.163 201.71 501.122 201.296C511.84 199.745 521.84 194.992 529.81 187.659C537.78 180.327 543.349 170.757 545.786 160.205C547.589 152.09 547.515 143.67 545.569 135.588C545.069 133.513 544.452 131.468 543.719 129.463C543.4 128.429 542.864 127.485 542.443 126.49C542.022 125.494 541.613 124.486 541.064 123.555C540.054 121.621 538.92 119.754 537.67 117.965C537.032 117.072 536.394 116.153 535.756 115.272L533.612 112.72C528.04 106.435 521.067 101.551 513.256 98.4623C505.445 95.3739 497.017 94.1685 488.654 94.9438C481.25 95.6754 474.079 97.9345 467.592 101.578C461.106 105.222 455.446 110.172 450.97 116.115C447.069 121.313 444.154 127.183 442.369 133.432C441.544 136.275 440.934 139.175 440.544 142.109C440.206 144.856 440.087 147.626 440.187 150.391C440.499 159.281 443.002 167.956 447.473 175.646C447.498 175.672 447.511 175.706 447.511 175.742C447.511 175.777 447.498 175.811 447.473 175.837C447.448 175.858 447.417 175.869 447.384 175.869C447.351 175.869 447.32 175.858 447.295 175.837L447.524 175.761C446.401 181.312 445.534 185.574 444.972 188.522C444.679 189.964 444.449 191.074 444.296 191.814C444.143 192.555 443.99 192.861 443.99 192.861Z" fill="#263238"/>
<path d="M510.208 149.907C510.205 148.823 510.524 147.762 511.125 146.86C511.726 145.958 512.581 145.254 513.581 144.838C514.582 144.422 515.684 144.313 516.747 144.524C517.81 144.735 518.787 145.256 519.553 146.023C520.32 146.789 520.842 147.766 521.052 148.829C521.263 149.892 521.154 150.994 520.738 151.995C520.322 152.996 519.618 153.85 518.716 154.451C517.814 155.052 516.753 155.371 515.67 155.368C514.222 155.365 512.835 154.788 511.811 153.765C510.788 152.741 510.211 151.354 510.208 149.907Z" fill="#263238"/>
<path d="M488.309 149.907C488.307 148.823 488.626 147.764 489.226 146.862C489.826 145.96 490.68 145.256 491.68 144.84C492.68 144.423 493.781 144.313 494.844 144.523C495.907 144.733 496.884 145.253 497.651 146.018C498.418 146.783 498.94 147.759 499.152 148.821C499.365 149.883 499.257 150.985 498.843 151.986C498.429 152.987 497.727 153.843 496.827 154.445C495.926 155.047 494.867 155.368 493.784 155.368C492.334 155.368 490.944 154.793 489.917 153.769C488.891 152.745 488.313 151.356 488.309 149.907Z" fill="#263238"/>
<path d="M466.475 152.637C465.934 151.7 465.682 150.623 465.753 149.542C465.824 148.462 466.213 147.426 466.872 146.567C467.532 145.708 468.431 145.064 469.456 144.716C470.481 144.368 471.587 144.331 472.633 144.612C473.679 144.892 474.618 145.476 475.332 146.29C476.046 147.104 476.502 148.112 476.644 149.185C476.785 150.259 476.605 151.35 476.126 152.321C475.647 153.292 474.891 154.1 473.953 154.641C472.695 155.363 471.202 155.558 469.801 155.183C468.399 154.807 467.203 153.892 466.475 152.637Z" fill="#263238"/>
<path d="M84.1477 345.817C80.7915 344.222 75.1383 340.891 71.6417 339.59C68.1854 338.111 64.3293 337.85 60.7053 338.85C58.6507 339.539 56.5962 341.185 56.5834 343.354L70.3018 353.474L84.1477 349.824V345.817Z" fill="#FF9A6C"/>
<path d="M69.1405 345.677C69.1405 345.677 44.4985 340.33 40.3894 338.224C36.2802 336.119 14.8669 325.399 11.2809 325.399C7.69503 325.399 4.63233 326.369 3.98151 329.942L8.66488 333.579L9.26466 335.442L17.2787 339.615L18.6952 342.244L39.1132 353.142C39.1132 353.142 60.5266 364.015 64.0998 364.627C67.6729 365.24 85.5132 366.733 93.1444 373.228L123.771 360.646C123.771 360.646 114.928 348.089 108.113 344.988C102.039 342.231 91.8427 342.231 84.7092 345.154L69.1405 345.677Z" fill="#FFBF9D"/>
<path d="M89.635 366.235C89.635 366.235 128.621 451.251 134.899 468.325C134.899 468.325 178.479 461.154 179.972 436.971L123.822 360.403L89.635 366.235Z" fill="#FFBF9D"/>
<path d="M53.4314 347.604C53.4314 347.604 53.2782 347.604 53.0103 347.604C52.6116 347.564 52.2181 347.482 51.8362 347.361C50.4386 346.936 49.0808 346.389 47.7781 345.728C46.1192 344.924 44.1922 343.865 42.0739 342.678C41.0147 342.091 39.9044 341.466 38.7432 340.866C37.5819 340.266 36.3185 339.743 35.0296 339.181C32.6432 338.1 30.1773 337.205 27.6536 336.501C25.3439 335.927 23.1234 335.493 21.4517 336.055C20.8032 336.314 20.215 336.704 19.7233 337.2C19.2316 337.696 18.8469 338.288 18.5931 338.939C18.4046 339.436 18.1873 339.922 17.9423 340.394C17.9423 340.394 17.9423 340.24 18.0061 339.985C18.0914 339.594 18.2066 339.21 18.3507 338.837C18.5762 338.241 18.8809 337.679 19.2567 337.165C19.7534 336.462 20.4456 335.921 21.2475 335.608C22.2367 335.277 23.2878 335.172 24.3229 335.302C25.4805 335.416 26.628 335.617 27.7557 335.902C30.3332 336.581 32.8512 337.469 35.2849 338.556C36.561 339.118 37.8371 339.641 39.0239 340.266C40.2107 340.891 41.3082 341.542 42.3674 342.142C44.473 343.354 46.3616 344.452 47.9823 345.294C49.2381 345.98 50.5384 346.581 51.8745 347.093C52.8699 347.463 53.4314 347.54 53.4314 347.604Z" fill="#FF9A6C"/>
<path d="M29.9251 335.379C28.7237 335.136 27.5605 334.732 26.4668 334.179C23.8349 332.937 21.1286 331.859 18.3634 330.95C16.8504 330.522 15.2692 330.387 13.7056 330.555C13.0817 330.574 12.4681 330.719 11.9021 330.982C11.3362 331.246 10.8296 331.621 10.4132 332.086C9.91409 332.778 9.5861 333.578 9.45608 334.422C9.44451 334.749 9.37987 335.072 9.26467 335.379C9.20497 335.054 9.20497 334.721 9.26467 334.396C9.31238 333.485 9.60321 332.604 10.1069 331.844C10.4975 331.312 11.0037 330.876 11.5872 330.568C12.2547 330.25 12.9708 330.047 13.7056 329.968C15.3515 329.761 17.0223 329.887 18.6187 330.338C21.4231 331.238 24.1397 332.391 26.7348 333.783C27.8261 334.258 28.8911 334.79 29.9251 335.379Z" fill="#FF9A6C"/>
<path d="M91.4344 343.265C91.4344 343.265 91.0898 343.469 90.439 343.699C89.5058 344.036 88.5559 344.326 87.5932 344.567C84.4252 345.391 81.1782 345.875 77.9075 346.009C74.6376 346.15 71.3618 345.953 68.1323 345.422C66.8562 345.205 65.9119 344.988 65.2355 344.796C64.8737 344.742 64.524 344.625 64.2019 344.452C64.2019 344.35 65.7332 344.643 68.2089 344.95C71.417 345.346 74.6522 345.479 77.8819 345.345C81.1141 345.178 84.3275 344.752 87.4912 344.069C89.852 343.61 91.3451 343.176 91.4344 343.265Z" fill="#FF9A6C"/>
<path d="M454.416 292.794L397.704 281.054L383.667 270.526L308.759 284.972C307.559 287.167 295.423 304.114 295.423 304.114L265.919 314.131C253.379 317.426 242.187 324.566 233.914 334.549C226.047 344.265 219.602 355.05 214.772 366.58C201.5 397.73 182.346 433.717 182.346 433.717L170.337 414.371L119.726 438.209C119.726 438.209 149.37 497.97 159.184 506.507C170.095 515.989 195.183 517.086 212.526 499.399C222.977 488.731 253.183 446.567 259.475 436.014L268.816 480.142L277.404 530.511L263.52 565.183H466.169L457.784 532.412C457.784 532.412 466.041 447.001 468.325 431.101C473.698 393.595 454.416 292.794 454.416 292.794Z" fill="#FF725E"/>
<path d="M454.416 292.794C454.416 292.794 494.996 304.177 503.929 344.516C509.34 368.953 527.716 438.617 534.186 495.966C538.015 530.064 537.912 561.572 538.015 565.183H475.74L449.349 304.177L454.416 292.794Z" fill="#FF725E"/>
<path d="M350.335 327.428C350.335 327.428 350.335 327.581 350.169 327.849L349.595 329.023C349.084 330.057 348.318 331.576 347.489 333.503C345.69 337.331 343.571 343.01 340.151 349.352L339.985 349.671L339.705 349.429C335.493 345.843 330.925 341.53 326.203 336.872C317.845 328.577 310.52 320.856 305.109 315.382L298.664 308.912L296.891 307.163C296.675 306.97 296.478 306.757 296.304 306.525C296.55 306.681 296.777 306.865 296.98 307.074L298.818 308.733C300.4 310.188 302.646 312.345 305.415 315.05C310.915 320.448 318.304 328.117 326.637 336.399C331.359 341.057 335.902 345.332 340.062 348.982L339.603 349.059C343.048 342.806 345.243 337.152 347.132 333.35C348.063 331.423 348.842 329.942 349.403 328.934C349.658 328.488 349.875 328.105 350.054 327.811C350.134 327.674 350.228 327.546 350.335 327.428Z" fill="#664526"/>
<path d="M398.496 282.496C398.492 282.797 398.453 283.097 398.381 283.389C398.253 284.027 398.1 284.869 397.909 285.941C397.449 288.136 396.633 291.301 395.586 295.155C393.378 302.812 389.805 313.391 385.377 324.812C383.042 330.861 380.745 336.578 378.601 341.644L378.435 342.04L378.116 341.759C372.335 336.655 367.154 332.635 363.645 329.649C361.884 328.156 360.505 326.956 359.574 326.114L358.54 325.144C358.298 324.914 358.183 324.799 358.196 324.787C358.343 324.863 358.48 324.958 358.604 325.067L359.701 325.973L363.874 329.368C367.46 332.277 372.68 336.221 378.524 341.3L378.039 341.415C380.145 336.31 382.429 330.619 384.752 324.582C389.129 313.097 392.766 302.697 395.076 295.027C396.224 291.199 397.066 288.06 397.628 285.878C397.87 284.844 398.075 284.014 398.228 283.325C398.296 283.043 398.386 282.765 398.496 282.496Z" fill="#664526"/>
<path d="M267.221 474.489C267.167 474.402 267.129 474.307 267.106 474.208L266.838 473.34C266.608 472.49 266.289 471.367 265.881 469.972C265.447 468.517 265.026 466.717 264.515 464.625C264.005 462.532 263.456 460.133 262.907 457.478C260.084 443.633 258.098 429.629 256.961 415.545C255.519 399.044 255.2 384.05 255.276 373.216C255.276 367.792 255.417 363.402 255.57 360.378C255.646 358.898 255.697 357.736 255.736 356.881C255.736 356.524 255.736 356.218 255.799 355.975C255.786 355.874 255.786 355.771 255.799 355.669C255.81 355.775 255.81 355.882 255.799 355.988V356.894C255.799 357.749 255.799 358.91 255.799 360.378C255.799 363.415 255.697 367.792 255.723 373.216C255.723 384.037 256.157 399.019 257.599 415.481C258.746 429.545 260.664 443.535 263.341 457.389C263.864 460.043 264.349 462.493 264.847 464.535C265.345 466.577 265.715 468.453 266.123 469.908L266.965 473.302L267.157 474.183C267.221 474.387 267.233 474.489 267.221 474.489Z" fill="#664526"/>
<path d="M457.784 337.535C457.86 337.646 457.92 337.766 457.963 337.893C458.078 338.161 458.231 338.505 458.41 338.939C458.818 339.909 459.367 341.274 460.082 342.997C460.439 343.89 460.86 344.86 461.268 345.945L462.481 349.518C462.915 350.794 463.374 352.185 463.872 353.64C464.369 355.095 464.701 356.69 465.148 358.336C468.976 371.467 470.89 390.469 469.793 411.257C468.695 432.045 466.245 450.817 464.688 464.293C463.91 471.031 463.272 476.505 462.825 480.334C462.608 482.184 462.43 483.652 462.302 484.685L462.149 485.821C462.14 485.951 462.114 486.08 462.072 486.204C462.055 486.077 462.055 485.948 462.072 485.821L462.162 484.673C462.264 483.626 462.404 482.12 462.57 480.308C462.927 476.48 463.489 471.018 464.216 464.242C465.607 450.689 467.955 431.981 469.078 411.232C470.201 390.482 468.313 371.582 464.65 358.451L463.374 353.755L462.098 349.646C461.689 348.37 461.307 347.157 460.949 346.06C460.592 344.962 460.158 343.98 459.814 343.086C459.15 341.338 458.64 339.973 458.257 338.99C458.104 338.543 457.976 338.199 457.874 337.918C457.824 337.796 457.794 337.667 457.784 337.535Z" fill="#664526"/>
<path d="M182.677 477.169C182.499 477.169 182.282 467.445 182.205 455.475C182.129 443.505 182.205 433.781 182.397 433.781C182.588 433.781 182.792 443.505 182.869 455.475C182.945 467.445 182.869 477.169 182.677 477.169Z" fill="#664526"/>
<path d="M366.822 536.062V535.526C366.822 535.143 366.924 534.633 367.001 533.969C367.18 532.566 367.422 530.562 367.741 527.984C367.907 526.708 368.086 525.241 368.29 523.671C368.494 522.101 368.647 520.366 368.839 518.566C369.209 514.866 369.719 510.667 370.115 505.997C370.306 503.674 370.497 501.224 370.714 498.684C370.931 496.145 371.033 493.491 371.199 490.747C371.582 485.26 371.748 479.377 371.965 473.2C372.246 460.834 372.207 447.231 371.569 432.977C370.931 418.722 369.63 405.17 368.188 392.881C367.384 386.743 366.682 380.911 365.776 375.487C365.355 372.769 364.985 370.14 364.5 367.626C364.015 365.112 363.619 362.7 363.224 360.391C362.445 355.784 361.552 351.649 360.824 347.999C360.454 346.175 360.123 344.477 359.804 342.895C359.485 341.313 359.14 339.922 358.846 338.645L357.57 332.763C357.443 332.112 357.328 331.601 357.251 331.231C357.175 330.861 357.162 330.695 357.162 330.695C357.227 330.861 357.278 331.032 357.315 331.206L357.711 332.724L359.127 338.594L360.135 342.831C360.467 344.388 360.824 346.073 361.22 347.936C361.973 351.573 362.905 355.707 363.708 360.314C364.134 362.62 364.559 365.031 364.985 367.55C365.444 370.102 365.814 372.654 366.261 375.411C367.18 380.847 367.907 386.679 368.736 392.817C370.204 405.119 371.455 418.684 372.169 432.951C372.884 447.218 372.833 460.847 372.514 473.226C372.271 479.415 372.093 485.298 371.684 490.785C371.506 493.529 371.378 496.183 371.161 498.735C370.944 501.288 370.714 503.725 370.51 506.06C370.153 510.731 369.604 514.993 369.234 518.617C369.017 520.468 368.813 522.191 368.634 523.722C368.456 525.253 368.213 526.734 368.022 528.035C367.652 530.588 367.358 532.604 367.167 533.995L366.924 535.552C366.905 535.724 366.871 535.895 366.822 536.062Z" fill="#664526"/>
<path d="M393.8 398.317H394.055L394.859 398.228L397.985 397.871L409.943 396.594L452.501 392.179H452.82V392.498C453.139 405.374 453.522 419.947 453.918 435.401V435.542L453.829 435.631L448.724 441.157L430.118 461.039L429.952 461.217L429.735 461.103L398.381 445.534L398.24 445.47V445.355C396.875 431.126 395.688 419.36 394.961 411.104C394.578 407.046 394.284 403.856 394.08 401.648C393.991 400.589 393.914 399.772 393.863 399.172C393.812 398.572 393.863 398.355 393.863 398.355C393.863 398.355 393.863 398.662 393.978 399.223C394.093 399.785 394.144 400.665 394.272 401.775C394.501 404.009 394.846 407.212 395.293 411.295C396.148 419.488 397.36 431.19 398.84 445.342L398.687 445.125L430.08 460.605L429.71 460.669L448.277 440.71L453.382 435.197L453.293 435.427C452.922 419.973 452.565 405.412 452.259 392.524L452.591 392.804L410.16 396.862L398.126 397.985L394.923 398.266L394.093 398.343L393.8 398.317Z" fill="#664526"/>
<path d="M452.897 407.301C452.174 407.502 451.435 407.643 450.689 407.722C449.26 407.952 447.193 408.245 444.628 408.577C439.523 409.228 432.39 409.981 424.541 410.734L404.43 412.699L398.343 413.337C397.604 413.456 396.857 413.511 396.109 413.503C396.832 413.302 397.571 413.161 398.317 413.082C399.746 412.852 401.814 412.559 404.379 412.227C409.483 411.576 416.617 410.823 424.478 410.07L444.577 408.105L450.664 407.467C451.402 407.348 452.149 407.293 452.897 407.301Z" fill="#664526"/>
<g opacity="0.3">
<path d="M465.224 457.491L467.368 483.562C472.103 461.23 479.542 437.226 478.381 414.435C477.22 391.643 475.076 369.834 462.238 349.199C467.819 364.735 470.379 381.195 469.78 397.692C468.606 424.363 465.224 457.491 465.224 457.491Z" fill="#664526"/>
</g>
<path d="M174.229 408.96C173.54 407.389 172.32 406.111 170.784 405.349C168.997 404.736 167.058 405.604 165.36 406.446L119.063 429.493C116.013 431.011 112.682 432.811 111.559 436.001C110.091 440.085 112.835 444.398 115.387 447.907C119.65 453.765 124.754 460.145 131.977 460.975L171.805 433.666C176.667 432.951 179.691 427.528 179.462 422.615C179.232 417.701 176.705 413.222 174.229 408.96Z" fill="#FF725E"/>
<path d="M179.257 425.652C179.139 425.816 179.002 425.966 178.849 426.098L177.573 427.285C176.475 428.306 174.855 429.748 172.826 431.484C168.755 434.967 162.974 439.6 156.236 444.321C149.498 449.043 143.334 452.935 138.651 455.564C136.328 456.904 134.427 457.95 133.1 458.64L131.569 459.418C131.211 459.597 131.02 459.673 131.007 459.648C131.155 459.508 131.322 459.392 131.505 459.303L132.972 458.41L138.409 455.156C142.99 452.399 149.23 448.443 155.891 443.734C162.553 439.025 168.372 434.47 172.481 431.088L177.369 427.043L178.645 425.958C179.079 425.754 179.245 425.626 179.257 425.652Z" fill="#664526"/>
<g opacity="0.3">
<path d="M397.896 285.418C392.447 303.514 384.816 323.983 378.371 341.568C372.884 336.91 365.202 330.746 359.702 326.076C364.435 335.466 370.118 344.348 376.661 352.581C377.427 353.538 378.448 354.584 379.635 354.355C380.821 354.125 381.357 352.9 381.766 351.802L391.809 325.221C396.505 312.791 401.035 298.294 397.896 285.418Z" fill="#664526"/>
</g>
<path d="M311.757 88.5503C328.347 83.7776 343.865 88.5503 359.165 96.4878C374.466 104.425 386.806 117.531 394.795 132.781C403.217 148.847 406.944 167.568 403.894 185.447C400.844 203.325 390.737 220.17 375.602 230.111C354.916 243.74 326.407 243.025 305.109 230.404C283.81 217.784 269.786 194.52 266.072 170.031C263.52 153.161 265.587 135.371 273.461 120.262C281.335 105.153 295.257 92.9019 311.745 88.5376" fill="#263238"/>
<path d="M366.222 140.476C363.019 134.312 363.16 127 361.412 120.262C357.583 105.446 344.056 94.7395 329.355 90.4645C315.688 86.4702 299.877 89.4691 284.691 96.3347C274.303 101.044 264.847 108.266 258.645 117.837C254.589 124.253 252.125 131.545 251.459 139.105C250.793 146.666 251.944 154.277 254.817 161.302L330.606 141.369C338.492 146.474 346.57 151.744 355.694 154.13C358.349 154.952 361.17 155.079 363.887 154.5C365.236 154.182 366.464 153.481 367.426 152.484C368.388 151.486 369.042 150.232 369.311 148.873C369.63 145.836 367.613 143.168 366.222 140.476Z" fill="#263238"/>
<path d="M384.305 274.865L364.742 137.273C363.874 130.765 360.914 124.129 354.367 124.435L285.457 117.799C263.864 118.794 253.732 147.15 255.646 168.627C257.777 192.542 261.312 221.65 266.812 238.903C277.876 273.576 305.811 273.933 305.811 273.933C305.811 273.933 307.508 280.824 309.639 293.713L354.303 323.421L384.305 274.865Z" fill="#FFBF9D"/>
<path d="M272.3 194.801C272.471 195.99 273.101 197.066 274.055 197.798C275.008 198.53 276.21 198.86 277.404 198.718C277.991 198.677 278.564 198.518 279.088 198.251C279.613 197.985 280.079 197.616 280.458 197.166C280.838 196.716 281.123 196.195 281.298 195.633C281.473 195.071 281.533 194.48 281.475 193.894C281.3 192.705 280.67 191.63 279.718 190.897C278.765 190.163 277.565 189.829 276.37 189.964C275.784 190.009 275.211 190.17 274.688 190.439C274.164 190.707 273.699 191.077 273.32 191.528C272.941 191.978 272.655 192.499 272.48 193.061C272.305 193.623 272.244 194.215 272.3 194.801Z" fill="#263238"/>
<path d="M264.26 182.741C264.911 183.252 267.974 180.189 272.887 179.436C277.8 178.683 281.756 180.61 282.202 179.921C282.419 179.615 281.679 178.645 279.944 177.726C277.595 176.587 274.954 176.195 272.376 176.603C269.823 176.982 267.458 178.167 265.625 179.985C264.286 181.363 263.941 182.473 264.26 182.741Z" fill="#263238"/>
<path d="M317.64 187.425C317.809 188.617 318.437 189.696 319.391 190.43C320.345 191.165 321.549 191.497 322.745 191.355C323.332 191.314 323.905 191.155 324.429 190.888C324.954 190.622 325.419 190.253 325.799 189.803C326.179 189.353 326.464 188.832 326.639 188.27C326.813 187.708 326.874 187.117 326.816 186.531C326.647 185.339 326.019 184.26 325.065 183.525C324.111 182.791 322.907 182.459 321.711 182.601C321.125 182.644 320.553 182.804 320.029 183.071C319.506 183.338 319.041 183.707 318.661 184.157C318.282 184.606 317.997 185.126 317.821 185.688C317.646 186.249 317.584 186.839 317.64 187.425Z" fill="#263238"/>
<path d="M310.928 176.246C311.579 176.756 314.654 173.693 319.555 172.94C324.455 172.188 328.424 174.114 328.87 173.425C329.087 173.119 328.347 172.149 326.612 171.23C324.26 170.088 321.614 169.696 319.031 170.107C316.446 170.488 314.052 171.692 312.204 173.54C310.928 174.816 310.583 176.092 310.928 176.246Z" fill="#263238"/>
<path d="M300.362 215.385C300.362 215.104 297.21 215.04 292.182 215.168C290.906 215.168 289.629 215.168 289.336 214.338C289.042 213.509 289.221 212.054 289.604 210.51C290.319 207.302 291.071 203.938 291.863 200.416C294.925 186.046 296.967 174.319 296.367 174.204C295.768 174.089 292.832 185.689 289.757 199.982C289.03 203.517 288.328 206.898 287.677 210.127C287.422 211.62 286.847 213.355 287.779 215.129C288.024 215.546 288.362 215.901 288.767 216.164C289.173 216.428 289.634 216.593 290.114 216.648C290.834 216.745 291.564 216.745 292.284 216.648C297.299 216.112 300.387 215.653 300.362 215.385Z" fill="#263238"/>
<path d="M305.823 273.933C322.602 271.627 338.41 264.704 351.483 253.936C351.483 253.936 340.343 281.82 308.095 284.627L305.823 273.933Z" fill="#FF9A6C"/>
<path d="M304.241 226.895C304.994 225.579 306.07 224.475 307.367 223.689C308.664 222.904 310.14 222.461 311.655 222.403C312.757 222.34 313.86 222.5 314.897 222.875C315.935 223.25 316.885 223.832 317.691 224.585C318.472 225.304 319.013 226.245 319.241 227.281C319.469 228.318 319.374 229.399 318.968 230.379C317.934 232.434 315.228 233.289 312.791 232.931C310.349 232.466 308.024 231.521 305.951 230.149C305.333 229.833 304.783 229.399 304.33 228.873C304.108 228.631 303.963 228.328 303.913 228.003C303.863 227.678 303.91 227.346 304.05 227.048" fill="#FF9A6C"/>
<path d="M315.318 216.571C314.501 216.648 315.318 221.982 311.324 226.448C307.329 230.915 301.599 231.208 301.663 231.949C301.663 232.306 303.093 232.791 305.492 232.497C308.619 232.064 311.493 230.541 313.608 228.197C315.637 225.951 316.713 223.003 316.607 219.979C316.466 217.72 315.675 216.495 315.318 216.571Z" fill="#263238"/>
<path d="M309.524 161.596C310.213 162.872 315.012 161.481 320.869 161.29C326.726 161.098 331.627 161.966 332.201 160.651C332.456 160.026 331.461 158.903 329.381 157.895C326.635 156.696 323.653 156.137 320.659 156.261C317.666 156.385 314.739 157.188 312.102 158.61C310.124 159.784 309.218 160.996 309.524 161.596Z" fill="#263238"/>
<path d="M262.435 161.085C263.469 162.068 266.672 160.396 270.73 159.72C274.788 159.044 278.387 159.324 278.948 158.035C279.216 157.41 278.502 156.389 276.843 155.56C274.63 154.607 272.185 154.331 269.816 154.767C267.447 155.204 265.261 156.332 263.533 158.01C262.244 159.375 261.95 160.6 262.435 161.085Z" fill="#263238"/>
<path d="M377.376 128.697C368.086 108.994 334.472 84.5306 313.136 88.9077L281.5 114.124C283.4 119.846 286.81 124.949 291.37 128.893C295.93 132.837 301.47 135.477 307.406 136.533C313.723 137.579 321.124 137.107 325.437 141.854C329.751 146.601 328.717 154.769 332.89 159.809C338.671 166.802 351.636 164.71 356.307 172.494C358.362 175.888 358.119 180.304 360.212 183.673C363.019 188.152 375.895 192.606 380.63 190.334C385.364 188.063 384.292 179.589 385.326 174.906C387.1 166.93 385.415 163.14 383.935 159.005C380.477 149.205 381.817 138.09 377.376 128.697Z" fill="#263238"/>
<path d="M366.503 196.511C366.108 193.856 368.213 187.157 370.765 186.302C377.58 184.158 390.252 182.792 393.072 200.505C396.901 224.751 371.837 223.59 371.672 222.901C371.506 222.212 367.881 205.622 366.503 196.511Z" fill="#FFBF9D"/>
<path d="M377.606 212.564C377.708 212.462 378.078 212.794 378.882 212.998C379.953 213.275 381.089 213.119 382.046 212.564C384.446 211.224 385.951 206.822 385.377 202.432C385.106 200.348 384.374 198.352 383.233 196.587C382.887 195.866 382.37 195.241 381.728 194.765C381.085 194.289 380.336 193.977 379.545 193.856C379.04 193.804 378.533 193.931 378.113 194.216C377.693 194.501 377.387 194.925 377.248 195.413C377.031 196.141 377.248 196.6 377.133 196.689C377.019 196.779 376.559 196.37 376.585 195.337C376.627 194.718 376.879 194.133 377.299 193.678C377.883 193.064 378.686 192.706 379.532 192.682C381.421 192.516 383.361 193.958 384.535 195.732C385.902 197.667 386.778 199.905 387.087 202.253C387.712 207.153 385.939 212.118 382.595 213.738C381.977 214.032 381.301 214.185 380.617 214.185C379.933 214.185 379.257 214.032 378.639 213.738C377.746 213.1 377.529 212.615 377.606 212.564Z" fill="#FF9A6C"/>
<path d="M287.728 105.97C286.618 116.179 273.002 130.535 267.31 138.996C256.374 155.139 254.434 160.307 258.288 193.18C251.039 182.499 245.22 171.881 244.25 159.005C243.281 146.129 246.522 132.768 254.383 122.534C262.244 112.299 274.89 105.561 287.792 105.944" fill="#263238"/>
<path d="M345.549 71.3482C350.654 65.7205 358.03 62.058 365.687 60.1438C376.597 57.4129 388.58 58.1531 398.508 62.9002C408.437 67.6474 416.119 76.5548 418.122 86.7638C419.107 92.0081 418.644 97.4217 416.782 102.422C414.921 107.423 411.731 111.821 407.556 115.145C413.233 120.649 420.154 124.702 427.732 126.962C425.664 130.063 421.849 131.875 417.995 132.526C414.12 133.01 410.199 132.984 406.331 132.449C408.971 136.394 412.922 139.278 417.484 140.591C411.204 142.041 404.654 141.825 398.483 139.965C392.447 138.136 386.67 135.541 381.294 132.245C362.624 121.411 352.325 111.916 339.717 95.2373C338.071 88.0399 340.406 76.9887 345.549 71.3482Z" fill="#263238"/>
<path d="M385.798 122.495C372.093 102.473 354.648 91.7662 338.862 88.4355L385.798 122.495Z" fill="#263238"/>
<path d="M338.862 88.4355C339.586 88.7251 340.333 88.9514 341.096 89.1119C342.538 89.5203 344.618 90.1456 347.119 91.1027C353.631 93.6324 359.753 97.0693 365.304 101.312C370.855 105.544 375.915 110.385 380.387 115.745C382.072 117.825 383.437 119.573 384.318 120.722C384.756 121.372 385.252 121.983 385.798 122.546C385.429 121.848 385.002 121.182 384.522 120.556C383.705 119.28 382.404 117.557 380.757 115.451C376.397 109.93 371.374 104.967 365.801 100.674C360.184 96.3886 353.944 92.9888 347.297 90.5922C345.293 89.879 343.248 89.2867 341.172 88.8184C340.414 88.6293 339.641 88.5013 338.862 88.4355Z" fill="#455A64"/>
<path d="M402.133 139.557L401.826 139.659L400.933 140.016C400.167 140.348 399.019 140.782 397.513 141.293C393.257 142.717 388.843 143.617 384.369 143.972C377.736 144.466 371.066 144.037 364.551 142.696C356.571 141.02 348.768 138.589 341.249 135.435C333.209 132.156 325.629 128.787 318.878 125.481C312.882 122.58 307.111 119.236 301.612 115.477C297.916 112.93 294.425 110.097 291.174 107.003C290 105.918 289.157 105.012 288.621 104.451L287.945 103.775C287.792 103.634 287.715 103.558 287.702 103.57C287.69 103.583 287.703 103.66 287.894 103.826L288.519 104.553C289.068 105.191 289.885 106.123 291.071 107.246C294.269 110.43 297.731 113.337 301.421 115.936C306.9 119.785 312.673 123.199 318.687 126.145C325.45 129.501 333.018 132.896 341.07 136.188C348.637 139.35 356.492 141.773 364.525 143.424C371.105 144.737 377.838 145.107 384.522 144.521C388.99 144.113 393.389 143.144 397.615 141.637C399.108 141.063 400.244 140.591 400.997 140.208L401.852 139.787C402.043 139.621 402.145 139.57 402.133 139.557Z" fill="#455A64"/>
<path d="M329.827 259.73L327.518 255.212C327.683 255.123 343.712 246.905 349.875 241.724C364.398 229.524 377.746 210.037 377.886 209.821L382.097 212.692C381.536 213.521 368.226 232.957 353.155 245.616C346.519 251.154 330.504 259.385 329.827 259.73Z" fill="#455A64"/>
<path d="M341.759 245.629C341.759 245.629 319.861 255.404 319.861 257.573C319.861 259.743 323.332 264.081 325.935 263.864C328.539 263.648 336.068 259.411 337.42 257.675C338.773 255.94 341.172 251.473 343.801 249.304L341.759 245.629Z" fill="#263238"/>
<path d="M381.919 179.921L376.814 179.678C376.999 164.959 374.464 150.331 369.336 136.533C358.259 107.998 336.961 92.685 306.053 91.0005C303.242 90.8772 300.425 91.0698 297.656 91.5747L299.89 89.4564C300.972 88.4349 302.23 87.6177 303.603 87.0445C305.485 86.2577 307.531 85.9423 309.563 86.1257C348.586 89.5074 366.223 114.315 374.147 134.835C379.546 149.243 382.182 164.538 381.919 179.921Z" fill="#455A64"/>
<path d="M379.367 226.334C388.296 226.334 395.535 215.924 395.535 203.083C395.535 190.241 388.296 179.832 379.367 179.832C370.437 179.832 363.198 190.241 363.198 203.083C363.198 215.924 370.437 226.334 379.367 226.334Z" fill="#455A64"/>
<path d="M395.535 203.082C395.52 202.977 395.52 202.869 395.535 202.763C395.535 202.508 395.535 202.202 395.459 201.819C395.401 200.614 395.278 199.412 395.088 198.22C394.429 193.824 392.717 189.652 390.099 186.059C389.217 184.897 388.197 183.848 387.062 182.932C385.825 181.959 384.431 181.203 382.94 180.699C381.344 180.182 379.653 180.021 377.988 180.227C376.227 180.492 374.54 181.122 373.037 182.077C369.852 184.293 367.392 187.401 365.967 191.01C364.374 194.853 363.553 198.973 363.553 203.134C363.553 207.294 364.374 211.414 365.967 215.257C367.391 218.867 369.851 221.975 373.037 224.19C374.54 225.145 376.227 225.776 377.988 226.04C379.654 226.24 381.342 226.079 382.94 225.568C384.431 225.064 385.825 224.309 387.062 223.335C388.194 222.416 389.214 221.367 390.099 220.208C392.717 216.615 394.429 212.443 395.088 208.047C395.277 206.855 395.401 205.653 395.459 204.448C395.459 204.065 395.459 203.759 395.535 203.504C395.518 203.398 395.518 203.29 395.535 203.185C395.555 203.29 395.555 203.398 395.535 203.504V204.448C395.522 205.664 395.436 206.879 395.28 208.085C394.709 212.56 393.034 216.823 390.405 220.489C389.511 221.691 388.474 222.779 387.317 223.73C386.041 224.761 384.594 225.56 383.042 226.091C381.369 226.64 379.597 226.819 377.848 226.614C376.001 226.349 374.231 225.697 372.654 224.7C369.352 222.454 366.797 219.272 365.316 215.563C363.674 211.643 362.828 207.435 362.828 203.185C362.828 198.934 363.674 194.726 365.316 190.806C366.797 187.097 369.352 183.915 372.654 181.669C374.231 180.672 376.001 180.02 377.848 179.755C379.597 179.551 381.369 179.729 383.042 180.278C384.594 180.809 386.041 181.608 387.317 182.639C388.477 183.586 389.515 184.675 390.405 185.88C393.038 189.545 394.713 193.808 395.28 198.284C395.436 199.486 395.521 200.696 395.535 201.908V202.866C395.544 202.938 395.544 203.01 395.535 203.082Z" fill="#263238"/>
<path d="M381.855 216.584C387.543 216.584 392.153 209.956 392.153 201.781C392.153 193.605 387.543 186.978 381.855 186.978C376.167 186.978 371.557 193.605 371.557 201.781C371.557 209.956 376.167 216.584 381.855 216.584Z" fill="#455A64"/>
<path d="M392.153 201.781C392.077 201.781 392.153 200.658 391.783 198.68C391.356 195.907 390.261 193.279 388.593 191.023C387.459 189.476 385.884 188.306 384.075 187.667C383.071 187.344 382.009 187.244 380.962 187.374C379.858 187.538 378.801 187.934 377.861 188.535C375.858 189.93 374.309 191.882 373.407 194.15C372.398 196.576 371.881 199.179 371.888 201.806C371.876 204.435 372.392 207.039 373.407 209.463C374.309 211.731 375.858 213.683 377.861 215.078C378.801 215.679 379.858 216.075 380.962 216.239C382.009 216.369 383.071 216.269 384.075 215.946C385.884 215.307 387.459 214.137 388.593 212.59C390.261 210.334 391.356 207.706 391.783 204.933C392.102 202.955 392.077 201.832 392.153 201.845C392.17 202.112 392.17 202.381 392.153 202.649C392.152 203.425 392.1 204.201 392 204.971C391.662 207.834 390.604 210.565 388.925 212.909C387.755 214.562 386.108 215.818 384.203 216.507C383.129 216.873 381.987 216.995 380.86 216.865C379.664 216.679 378.52 216.244 377.503 215.589C375.382 214.149 373.738 212.11 372.782 209.731C371.729 207.22 371.187 204.523 371.187 201.8C371.187 199.077 371.729 196.381 372.782 193.869C373.738 191.49 375.382 189.451 377.503 188.012C378.517 187.358 379.656 186.923 380.847 186.735C381.978 186.606 383.124 186.728 384.203 187.093C386.108 187.782 387.755 189.038 388.925 190.691C390.604 193.035 391.662 195.766 392 198.629C392.1 199.399 392.152 200.175 392.153 200.951C392.17 201.228 392.17 201.505 392.153 201.781Z" fill="#263238"/>
<path d="M382.57 212.424C386.657 212.424 389.971 207.659 389.971 201.781C389.971 195.903 386.657 191.138 382.57 191.138C378.482 191.138 375.168 195.903 375.168 201.781C375.168 207.659 378.482 212.424 382.57 212.424Z" fill="#455A64"/>
<path d="M389.971 201.781C389.907 201.781 389.907 200.977 389.678 199.561C389.349 197.569 388.553 195.684 387.355 194.06C386.548 192.959 385.427 192.127 384.139 191.674C383.406 191.439 382.629 191.374 381.866 191.482C381.104 191.59 380.376 191.87 379.737 192.299C376.967 194.124 375.5 197.953 375.487 201.768C375.474 205.584 376.967 209.425 379.737 211.25C380.376 211.679 381.104 211.959 381.866 212.067C382.629 212.175 383.406 212.11 384.139 211.875C385.427 211.422 386.548 210.59 387.355 209.489C388.553 207.865 389.349 205.98 389.678 203.989C389.907 202.572 389.907 201.768 389.971 201.781C390.002 201.971 390.002 202.165 389.971 202.355C389.978 202.914 389.948 203.472 389.882 204.027C389.652 206.101 388.897 208.082 387.687 209.782C386.825 210.959 385.629 211.849 384.254 212.335C383.47 212.598 382.639 212.689 381.817 212.603C380.946 212.482 380.111 212.178 379.367 211.709C377.822 210.664 376.626 209.179 375.934 207.447C375.166 205.63 374.77 203.677 374.77 201.704C374.77 199.732 375.166 197.779 375.934 195.962C376.626 194.23 377.822 192.745 379.367 191.7C380.111 191.231 380.946 190.927 381.817 190.806C382.639 190.72 383.47 190.811 384.254 191.074C385.629 191.56 386.825 192.45 387.687 193.627C388.897 195.327 389.652 197.308 389.882 199.382C389.948 199.937 389.978 200.495 389.971 201.054C390.017 201.294 390.017 201.541 389.971 201.781Z" fill="#263238"/>
</svg>
